<?xml version="1.0" encoding="UTF-8" standalone="no"?>
<!-- Created with Inkscape (http://www.inkscape.org/) -->

<svg
   version="1.1"
   id="svg2"
   width="257.33334"
   height="257.33334"
   viewBox="0 0 257.33334 257.33334"
   sodipodi:docname="2.eps"
   xmlns:inkscape="http://www.inkscape.org/namespaces/inkscape"
   xmlns:sodipodi="http://sodipodi.sourceforge.net/DTD/sodipodi-0.dtd"
   xmlns="http://www.w3.org/2000/svg"
   xmlns:svg="http://www.w3.org/2000/svg">
  <defs
     id="defs6" />
  <sodipodi:namedview
     id="namedview4"
     pagecolor="#ffffff"
     bordercolor="#000000"
     borderopacity="0.25"
     inkscape:showpageshadow="2"
     inkscape:pageopacity="0.0"
     inkscape:pagecheckerboard="0"
     inkscape:deskcolor="#d1d1d1" />
  <g
     id="g8"
     inkscape:groupmode="layer"
     inkscape:label="ink_ext_XXXXXX"
     transform="matrix(1.3333333,0,0,-1.3333333,0,257.33333)">
    <g
       id="g10"
       transform="scale(0.1)">
      <path
         d="M 0,1927.56 H 1927.56 V 0 H 0 v 1927.56"
         style="fill:#231f20;fill-opacity:1;fill-rule:evenodd;stroke:none"
         id="path12" />
      <path
         d="M 162.574,894.59 H 1763.53 V 707.398 H 162.574 V 894.59"
         style="fill:#373f41;fill-opacity:1;fill-rule:evenodd;stroke:none"
         id="path14" />
      <path
         d="m 204.824,1213.61 c 5.821,0 10.922,-0.73 14.563,-1.46 5.097,-1.45 9.472,-2.91 13.836,-5.83 4.375,-3.64 8.746,-8 10.929,-13.83 2.911,-5.83 4.364,-13.11 4.364,-20.4 0,-7.28 -1.453,-13.84 -4.364,-19.66 -2.183,-5.83 -6.554,-10.93 -10.929,-13.84 -4.364,-2.91 -8.739,-5.1 -13.836,-5.83 -3.641,-0.73 -8.012,-1.46 -14.563,-2.19 v 17.49 c 7.281,0.73 13.102,2.18 16.024,4.37 5.097,3.64 8.011,10.2 8.011,18.93 0,9.48 -2.914,16.03 -8.011,20.4 -3.649,2.19 -8.743,4.37 -16.024,5.1 z m -24.043,-83.04 v -67.74 h -17.476 v 150.78 h 31.316 c 3.645,0 7.281,0 10.203,0 v -16.75 c -4.379,0.73 -9.476,0.73 -15.301,0.73 h -8.742 v -50.26 h 8.742 c 5.825,0 10.922,0 15.301,0.73 v -17.49 c -2.922,0 -6.558,0 -10.203,0 h -5.098 -8.742"
         style="fill:#ffffff;fill-opacity:1;fill-rule:evenodd;stroke:none"
         id="path16" />
      <path
         d="m 335.199,1062.83 v 150.78 h 79.391 v -16.02 h -61.91 v -42.98 h 61.91 v -16.75 h -61.91 v -58.27 h 61.91 v -16.76 h -79.391"
         style="fill:#ffffff;fill-opacity:1;fill-rule:evenodd;stroke:none"
         id="path18" />
      <path
         d="m 504.18,1062.83 v 157.33 l 110.711,-120.91 v 114.36 h 16.757 v -156.6 L 520.93,1176.46 v -113.63 h -16.75"
         style="fill:#ffffff;fill-opacity:1;fill-rule:evenodd;stroke:none"
         id="path20" />
      <path
         d="m 728.52,1062.83 v 157.33 l 110.707,-120.91 v 114.36 h 17.484 v -156.6 L 745.27,1176.46 v -113.63 h -16.75"
         style="fill:#ffffff;fill-opacity:1;fill-rule:evenodd;stroke:none"
         id="path22" />
      <path
         d="m 984.902,1062.83 v 69.2 l -50.257,81.58 h 21.128 l 38.598,-64.82 39.329,64.82 h 21.12 l -51.71,-81.58 v -69.2 h -18.208"
         style="fill:#ffffff;fill-opacity:1;fill-rule:evenodd;stroke:none"
         id="path24" />
      <path
         d="m 1113.82,1213.61 h 18.94 l 38.6,-110.71 40.07,117.26 40.78,-117.26 38.61,110.71 h 18.93 l -58.27,-156.6 -40.05,116.54 -39.34,-116.54 -58.27,156.6"
         style="fill:#ffffff;fill-opacity:1;fill-rule:evenodd;stroke:none"
         id="path26" />
      <path
         d="m 1388.41,1062.83 v 150.78 h 18.22 v -150.78 h -18.22"
         style="fill:#ffffff;fill-opacity:1;fill-rule:evenodd;stroke:none"
         id="path28" />
      <path
         d="m 1484.56,1062.83 85.22,134.76 h -69.19 v 16.02 h 99.78 l -84.49,-133.29 h 80.85 v -17.49 h -112.17"
         style="fill:#ffffff;fill-opacity:1;fill-rule:evenodd;stroke:none"
         id="path30" />
      <path
         d="m 1683.41,1062.83 v 150.78 h 80.12 v -16.02 h -61.92 v -42.98 h 61.92 v -16.75 h -61.92 v -58.27 h 61.92 v -16.76 h -80.12"
         style="fill:#ffffff;fill-opacity:1;fill-rule:evenodd;stroke:none"
         id="path32" />
      <path
         d="m 179.324,1000.2 c 0.731,0.73 2.192,0.73 2.918,1.46 0.731,1.45 1.457,2.91 1.457,5.82 0,2.19 -0.726,4.37 -1.457,5.1 -0.726,0.73 -2.187,1.46 -2.918,1.46 v 8.01 c 4.375,0 8.012,-1.46 10.93,-3.65 2.914,-2.18 4.367,-5.82 4.367,-10.92 0,-5.1 -1.453,-8.738 -4.367,-11.652 -2.918,-2.187 -6.555,-3.644 -10.93,-4.375 z m -5.094,0 h 1.458 c 1.457,0 2.183,0 3.636,0 v -8.747 c -0.726,0 -1.453,0 -2.179,0 h -2.915 v -18.937 h -10.925 v 49.534 h 12.383 c 1.457,0 2.183,0 3.636,0 v -8.01 c -1.453,0.73 -2.179,0.73 -3.636,0.73 h -1.458 v -14.57"
         style="fill:#de8629;fill-opacity:1;fill-rule:evenodd;stroke:none"
         id="path34" />
      <path
         d="m 248.516,991.453 -5.821,16.027 c 0,0.73 -0.726,1.46 -0.726,2.91 0,0.74 -0.731,2.19 -0.731,3.65 v 8.01 h 6.551 l 18.941,-49.534 h -12.378 l -3.645,10.929 h -9.469 v 8.008 z m -7.278,22.587 v 0 c 0,-1.46 -0.73,-2.91 -0.73,-4.37 -0.727,-0.73 -0.727,-1.46 -0.727,-2.19 l -5.097,-16.027 h 6.554 v -8.008 h -9.472 l -3.637,-10.929 h -11.656 l 18.937,49.534 h 5.828 v -8.01"
         style="fill:#de8629;fill-opacity:1;fill-rule:evenodd;stroke:none"
         id="path36" />
      <path
         d="m 289.313,979.074 5.824,6.559 c 0.73,-1.457 2.187,-2.914 3.644,-4.371 1.453,-0.731 3.637,-1.457 5.098,-1.457 2.914,0 5.098,0.726 6.555,2.183 1.457,0.731 1.457,2.188 1.457,4.371 0,2.18 -2.188,4.368 -6.555,7.282 -2.184,0.73 -2.918,1.457 -3.645,1.457 -4.367,2.187 -8.011,4.371 -9.464,6.562 -1.457,2.18 -2.188,5.09 -2.188,8.01 0,3.64 1.457,7.28 4.367,10.19 3.645,2.19 8.012,3.64 13.114,3.64 2.914,0 5.097,-0.73 7.285,-1.45 2.183,-1.46 4.371,-2.92 5.828,-5.1 l -5.828,-5.82 c -0.731,1.45 -2.188,2.18 -2.914,2.91 -1.457,0.73 -2.914,1.46 -4.371,1.46 -2.184,0 -4.368,-0.73 -5.102,-1.46 -1.457,-1.46 -2.184,-2.91 -2.184,-4.37 0,-2.92 2.184,-5.1 7.286,-7.29 1.457,0 2.183,-0.72 2.914,-0.72 3.64,-2.191 7.281,-4.375 8.742,-6.562 2.183,-2.188 3.64,-5.102 3.64,-8.016 0,-5.094 -2.183,-8.734 -5.101,-11.652 -2.91,-2.914 -7.281,-3.641 -12.379,-3.641 -4.375,0 -7.285,0 -10.199,1.457 -2.91,1.457 -4.367,3.641 -5.824,5.828"
         style="fill:#de8629;fill-opacity:1;fill-rule:evenodd;stroke:none"
         id="path38" />
      <path
         d="m 348.309,979.074 5.828,6.559 c 0.722,-1.457 2.183,-2.914 3.644,-4.371 1.453,-0.731 3.637,-1.457 5.821,-1.457 2.191,0 4.375,0.726 5.828,2.183 1.457,0.731 2.187,2.188 2.187,4.371 0,2.18 -2.187,4.368 -7.281,7.282 -1.461,0.73 -2.918,1.457 -3.648,1.457 -4.368,2.187 -7.282,4.371 -8.735,6.562 -2.187,2.18 -2.914,5.09 -2.914,8.01 0,3.64 1.457,7.28 5.098,10.19 2.914,2.19 7.281,3.64 12.383,3.64 2.91,0 5.824,-0.73 8.011,-1.45 2.184,-1.46 3.641,-2.92 5.828,-5.1 l -6.558,-5.82 c -0.727,1.45 -1.457,2.18 -2.914,2.91 -1.457,0.73 -2.91,1.46 -4.367,1.46 -2.184,0 -3.645,-0.73 -5.102,-1.46 -1.453,-1.46 -2.184,-2.91 -2.184,-4.37 0,-2.92 2.911,-5.1 8.016,-7.29 0.727,0 1.453,-0.72 2.18,-0.72 4.371,-2.191 7.285,-4.375 9.468,-6.562 2.188,-2.188 2.918,-5.102 2.918,-8.016 0,-5.094 -1.457,-8.734 -5.101,-11.652 -2.914,-2.914 -7.285,-3.641 -12.379,-3.641 -3.648,0 -7.285,0 -10.199,1.457 -2.184,1.457 -4.371,3.641 -5.828,5.828"
         style="fill:#de8629;fill-opacity:1;fill-rule:evenodd;stroke:none"
         id="path40" />
      <path
         d="m 441.543,1022.05 7.281,-26.222 c 0.727,-2.187 1.453,-3.644 1.453,-5.832 0.731,-2.183 0.731,-4.363 1.457,-6.551 0,2.188 0,3.637 0,5.828 0.731,2.18 0.731,4.368 1.457,6.555 l 6.559,26.222 h 10.199 l -13.113,-49.534 h -9.469 l -9.472,32.054 c 0,1.45 -0.727,2.91 -0.727,4.37 0,1.45 -0.727,2.91 -0.727,4.37 0,-1.46 0,-2.92 0,-4.37 -0.726,-1.46 -0.726,-2.92 -1.457,-4.37 l -8.738,-32.054 h -10.203 l -13.105,49.534 h 10.921 l 6.559,-26.952 c 0,-2.188 0.727,-3.645 0.727,-5.102 0,-2.183 0,-4.363 0.73,-6.551 0,2.914 0.727,6.551 2.184,10.926 v 0.727 l 7.285,26.952 h 10.199"
         style="fill:#de8629;fill-opacity:1;fill-rule:evenodd;stroke:none"
         id="path42" />
      <path
         d="m 547.879,997.285 c 0,-3.644 0,-6.558 -1.453,-10.203 -1.457,-2.906 -3.641,-5.82 -5.828,-8.008 -2.914,-2.187 -5.832,-4.371 -8.743,-5.828 -3.64,-1.457 -6.554,-1.457 -10.195,-1.457 v 0 9.473 0 c 4.371,0 8.012,1.457 10.926,4.371 2.914,2.906 4.371,7.277 4.371,11.652 0,5.095 -1.457,8.735 -4.371,12.385 -2.914,2.91 -6.555,4.37 -10.926,4.37 v 0 9.46 0 c 3.641,0 7.285,-0.73 10.195,-2.18 2.911,-1.46 5.829,-2.92 8.743,-5.82 2.187,-2.19 4.371,-5.11 5.828,-8.02 1.453,-2.91 1.453,-6.55 1.453,-10.195 z M 521.66,971.789 c -2.918,0 -5.824,0 -8.738,1.457 -2.914,0.727 -5.828,2.184 -8.016,4.371 -2.914,2.188 -5.824,5.102 -7.281,8.742 -1.457,3.637 -2.187,7.282 -2.187,10.926 0,3.645 0.73,7.285 1.457,10.195 1.457,2.91 3.644,5.83 5.824,8.02 2.918,2.9 5.832,4.36 8.746,5.82 3.64,1.45 6.551,2.18 10.195,2.18 v -9.46 c -4.371,0 -8.012,-1.46 -10.93,-4.37 -2.91,-3.65 -4.367,-7.29 -4.367,-12.385 0,-4.375 1.457,-8.746 4.367,-11.652 2.918,-2.914 6.559,-4.371 10.93,-4.371 v -9.473"
         style="fill:#de8629;fill-opacity:1;fill-rule:evenodd;stroke:none"
         id="path44" />
      <path
         d="M 605.422,972.516 H 593.77 l -7.286,12.386 v 16.758 c 2.188,0 3.645,0.72 4.371,0.72 1.458,1.46 1.458,2.92 1.458,5.1 0,2.19 -0.727,4.37 -2.184,5.1 -0.731,0.73 -2.188,1.46 -3.645,1.46 v 8.01 c 5.102,0 9.469,-0.73 12.383,-2.92 2.914,-2.91 4.371,-5.82 4.371,-10.92 0,-3.64 -1.457,-6.55 -2.91,-8.741 -2.191,-2.184 -5.105,-3.641 -8.015,-4.371 z m -18.938,12.386 -5.828,10.926 v -23.312 h -10.922 v 49.534 h 15.297 c 0.727,0 0.727,0 1.453,0 v -8.01 c -1.453,0 -2.914,0 -4.371,0 h -1.457 v -13.11 h 1.457 c 1.457,0 2.918,0.73 4.371,0.73 v -16.758"
         style="fill:#de8629;fill-opacity:1;fill-rule:evenodd;stroke:none"
         id="path46" />
      <path
         d="m 652.039,981.988 c 2.91,0.731 5.098,2.188 6.555,3.645 2.918,2.18 4.375,6.551 4.375,11.652 0,5.825 -1.457,9.465 -4.375,12.385 -1.457,1.46 -3.645,2.91 -6.555,2.91 v 9.47 c 1.453,0 2.91,-0.73 4.367,-0.73 2.914,-0.73 5.832,-2.19 8.016,-3.64 2.914,-2.18 5.098,-5.1 6.555,-8.74 2.183,-2.92 2.914,-7.28 2.914,-11.655 0,-4.375 -0.731,-8.012 -2.914,-11.652 -1.457,-2.914 -3.641,-5.828 -6.555,-8.016 -2.184,-2.187 -5.102,-2.914 -8.016,-3.644 -0.726,-0.727 -2.914,-0.727 -4.367,-0.727 z m -10.926,0 h 5.828 c 1.457,0 3.641,0 5.098,0 v -8.742 c -2.184,0 -4.375,-0.73 -7.285,-0.73 h -3.641 -10.925 v 49.534 h 13.839 c 2.914,0 5.098,0 8.012,0 v -9.47 c -1.457,0.73 -3.641,0.73 -5.098,0.73 h -5.828 v -31.322"
         style="fill:#de8629;fill-opacity:1;fill-rule:evenodd;stroke:none"
         id="path48" />
      <path
         d="m 754.742,1000.2 c 1.453,0.73 2.184,0.73 2.91,1.46 1.453,1.45 2.184,2.91 2.184,5.82 0,2.19 -0.731,4.37 -2.184,5.1 -0.726,0.73 -1.457,1.46 -2.91,1.46 v 8.01 c 5.094,0 8.735,-1.46 10.922,-3.65 3.645,-2.18 5.102,-5.82 5.102,-10.92 0,-5.1 -1.457,-8.738 -5.102,-11.652 -2.187,-2.187 -5.828,-3.644 -10.922,-4.375 z m -4.375,0 h 1.457 c 0.731,0 2.188,0 2.918,0 v -8.747 c -0.73,0 -0.73,0 -1.457,0 h -2.918 v -18.937 h -10.922 v 49.534 h 12.379 c 0.731,0 2.188,0 2.918,0 v -8.01 c -0.73,0.73 -2.187,0.73 -2.918,0.73 h -1.457 v -14.57"
         style="fill:#de8629;fill-opacity:1;fill-rule:evenodd;stroke:none"
         id="path50" />
      <path
         d="m 834.855,972.516 h -12.378 l -6.551,12.386 v 16.758 c 1.453,0 2.91,0.72 3.637,0.72 1.457,1.46 2.183,2.92 2.183,5.1 0,2.19 -0.726,4.37 -2.183,5.1 -0.727,0.73 -2.184,1.46 -3.637,1.46 v 8.01 c 5.094,0 9.465,-0.73 11.648,-2.92 2.918,-2.91 4.375,-5.82 4.375,-10.92 0,-3.64 -0.73,-6.55 -2.922,-8.741 -2.179,-2.184 -4.367,-3.641 -8.007,-4.371 z m -18.929,12.386 -6.563,10.926 v -23.312 h -10.191 v 49.534 h 15.293 c 0,0 0.73,0 1.461,0 v -8.01 c -1.461,0 -2.914,0 -4.375,0 h -2.188 v -13.11 h 2.188 c 1.461,0 2.914,0.73 4.375,0.73 v -16.758"
         style="fill:#de8629;fill-opacity:1;fill-rule:evenodd;stroke:none"
         id="path52" />
      <path
         d="m 910.609,997.285 c 0,-3.644 -0.726,-6.558 -1.453,-10.203 -1.457,-2.906 -3.648,-5.82 -5.832,-8.008 -2.914,-2.187 -5.828,-4.371 -8.738,-5.828 -3.645,-1.457 -6.555,-1.457 -10.199,-1.457 v 0 9.473 0 c 4.371,0 8.015,1.457 10.926,4.371 2.914,2.906 4.371,7.277 4.371,11.652 0,5.095 -1.457,8.735 -4.371,12.385 -2.911,2.91 -6.555,4.37 -10.926,4.37 v 0 9.46 0 c 3.644,0 6.554,-0.73 10.199,-2.18 2.91,-1.46 5.824,-2.92 8.738,-5.82 2.184,-2.19 4.375,-5.11 5.832,-8.02 0.727,-2.91 1.453,-6.55 1.453,-10.195 z m -26.222,-25.496 c -2.914,0 -5.824,0 -8.739,1.457 -2.914,0.727 -5.828,2.184 -8.015,4.371 -2.91,2.188 -5.817,5.102 -7.281,8.742 -1.457,3.637 -2.184,7.282 -2.184,10.926 0,3.645 0.727,7.285 1.457,10.195 1.457,2.91 3.645,5.83 5.824,8.02 2.914,2.9 5.828,4.36 8.742,5.82 3.641,1.45 6.555,2.18 10.196,2.18 v -9.46 c -4.367,0 -8.008,-1.46 -10.922,-4.37 -2.918,-3.65 -4.371,-7.29 -4.371,-12.385 0,-4.375 1.453,-8.746 4.371,-11.652 2.914,-2.914 6.555,-4.371 10.922,-4.371 v -9.473"
         style="fill:#de8629;fill-opacity:1;fill-rule:evenodd;stroke:none"
         id="path54" />
      <path
         d="m 956.496,1013.31 v -40.794 h -10.922 v 40.794 h -12.386 v 8.74 h 34.234 v -8.74 h -10.926"
         style="fill:#de8629;fill-opacity:1;fill-rule:evenodd;stroke:none"
         id="path56" />
      <path
         d="m 991.453,972.516 v 49.534 h 29.137 v -8.74 h -18.21 v -10.2 h 18.21 v -8.739 h -18.21 v -12.383 h 18.21 v -9.472 h -29.137"
         style="fill:#de8629;fill-opacity:1;fill-rule:evenodd;stroke:none"
         id="path58" />
      <path
         d="m 1091.25,1009.67 c -2.19,1.46 -4.37,2.91 -6.56,4.37 -2.19,0.73 -4.37,0.73 -7.28,0.73 -5.1,0 -9.48,-1.46 -12.39,-4.38 -3.64,-3.64 -5.09,-7.28 -5.09,-13.105 0,-5.101 1.45,-8.746 4.36,-12.383 2.91,-2.914 7.29,-4.371 12.39,-4.371 2.91,0 5.09,0.731 8.01,1.457 2.19,0.731 4.37,2.188 6.56,4.371 V 975.43 c -2.19,-1.457 -4.37,-2.184 -7.29,-2.914 -2.19,-0.727 -5.1,-0.727 -8.01,-0.727 -7.29,0 -13.84,2.184 -18.94,7.285 -5.1,4.371 -8.01,10.922 -8.01,18.211 0,8.015 2.91,13.845 8.01,18.935 5.1,5.1 11.65,7.28 19.67,7.28 2.18,0 5.09,0 7.28,-0.73 2.92,-0.72 5.1,-1.45 8.01,-2.91 l -0.72,-10.19"
         style="fill:#de8629;fill-opacity:1;fill-rule:evenodd;stroke:none"
         id="path60" />
      <path
         d="m 1140.04,1013.31 v -40.794 h -10.2 v 40.794 h -12.38 v 8.74 h 34.97 v -8.74 h -12.39"
         style="fill:#de8629;fill-opacity:1;fill-rule:evenodd;stroke:none"
         id="path62" />
      <path
         d="m 1174.27,972.516 v 49.534 h 10.93 v -49.534 h -10.93"
         style="fill:#de8629;fill-opacity:1;fill-rule:evenodd;stroke:none"
         id="path64" />
      <path
         d="m 1272.61,997.285 c 0,-3.644 -0.73,-6.558 -1.46,-10.203 -1.45,-2.906 -3.64,-5.82 -5.83,-8.008 -2.91,-2.187 -5.82,-4.371 -8.73,-5.828 -3.65,-1.457 -6.57,-1.457 -10.2,-1.457 v 0 9.473 0 c 4.36,0 8.01,1.457 10.92,4.371 2.91,2.906 4.37,7.277 4.37,11.652 0,5.095 -1.46,8.735 -4.37,12.385 -2.91,2.91 -6.56,4.37 -10.92,4.37 v 0 9.46 0 c 3.63,0 6.55,-0.73 10.2,-2.18 2.91,-1.46 5.82,-2.92 8.73,-5.82 2.19,-2.19 4.38,-5.11 5.83,-8.02 0.73,-2.91 1.46,-6.55 1.46,-10.195 z m -26.22,-25.496 c -2.92,0 -5.83,0 -8.75,1.457 -2.91,0.727 -5.82,2.184 -8.01,4.371 -2.91,2.188 -5.82,5.102 -7.28,8.742 -1.46,3.637 -2.19,7.282 -2.19,10.926 0,3.645 0.73,7.285 1.46,10.195 1.46,2.91 3.65,5.83 5.83,8.02 2.91,2.9 5.82,4.36 8.74,5.82 3.64,1.45 6.56,2.18 10.2,2.18 v -9.46 c -4.37,0 -8.01,-1.46 -10.93,-4.37 -2.91,-3.65 -4.37,-7.29 -4.37,-12.385 0,-4.375 1.46,-8.746 4.37,-11.652 2.92,-2.914 6.56,-4.371 10.93,-4.371 v -9.473"
         style="fill:#de8629;fill-opacity:1;fill-rule:evenodd;stroke:none"
         id="path66" />
      <path
         d="m 1293.73,972.516 v 49.534 h 10.93 l 21.84,-28.409 c 0.73,-0.731 1.46,-2.188 2.19,-3.645 0.73,-1.457 1.46,-2.914 2.92,-5.094 -0.73,1.457 -0.73,2.911 -0.73,4.371 0,1.454 0,2.911 0,5.098 v 27.679 h 9.47 v -49.534 h -10.2 l -22.58,29.864 c -0.73,0.73 -1.46,1.46 -2.19,2.92 -0.72,1.45 -1.45,3.64 -2.18,5.83 0.73,-1.46 0.73,-2.92 0.73,-4.38 0,-1.45 0,-3.64 0,-5.82 v -28.414 h -10.2"
         style="fill:#de8629;fill-opacity:1;fill-rule:evenodd;stroke:none"
         id="path68" />
      <path
         d="m 1459.07,997.285 c 0,-3.644 -0.73,-6.558 -2.18,-10.203 -1.46,-2.906 -3.65,-5.82 -5.84,-8.008 -2.91,-2.187 -5.82,-4.371 -8.73,-5.828 -2.91,-1.457 -6.56,-1.457 -10.2,-1.457 v 0 9.473 0 c 4.37,0 8.74,1.457 11.65,4.371 2.92,2.906 4.37,7.277 4.37,11.652 0,5.095 -1.45,8.735 -5.1,12.385 -2.91,2.91 -6.55,4.37 -10.92,4.37 v 0 9.46 0 c 3.64,0 7.29,-0.73 10.2,-2.18 3.64,-1.46 6.55,-2.92 8.73,-5.82 2.19,-2.19 4.38,-5.11 5.84,-8.02 1.45,-2.91 2.18,-6.55 2.18,-10.195 z m -26.95,-25.496 c -2.91,0 -5.83,0 -8.74,1.457 -2.92,0.727 -5.83,2.184 -8.01,4.371 -2.92,2.188 -5.1,5.102 -7.28,8.742 -1.46,3.637 -2.19,7.282 -2.19,10.926 0,3.645 0.73,7.285 2.19,10.195 0.73,2.91 2.91,5.83 5.82,8.02 2.18,2.9 5.1,4.36 8.01,5.82 3.65,1.45 6.56,2.18 10.2,2.18 v -9.46 c -4.37,0 -8.01,-1.46 -10.92,-4.37 -2.92,-3.65 -4.37,-7.29 -4.37,-12.385 0,-4.375 1.45,-8.746 4.37,-11.652 2.91,-2.914 6.55,-4.371 10.92,-4.371 v -9.473"
         style="fill:#de8629;fill-opacity:1;fill-rule:evenodd;stroke:none"
         id="path70" />
      <path
         d="m 1488.2,972.516 v 49.534 h 10.93 l 21.85,-28.409 c 0.73,-0.731 1.46,-2.188 2.18,-3.645 0.73,-1.457 1.46,-2.914 2.19,-5.094 0,1.457 0,2.911 -0.73,4.371 0,1.454 0,2.911 0,5.098 v 27.679 h 10.2 v -49.534 h -10.2 l -22.58,29.864 c -0.73,0.73 -1.45,1.46 -2.18,2.92 -0.73,1.45 -1.46,3.64 -2.19,5.83 0,-1.46 0,-2.92 0,-4.38 0.73,-1.45 0.73,-3.64 0.73,-5.82 v -28.414 h -10.2"
         style="fill:#de8629;fill-opacity:1;fill-rule:evenodd;stroke:none"
         id="path72" />
      <path
         d="m 1564.68,972.516 v 49.534 h 10.93 v -40.062 h 16.75 v -9.472 h -27.68"
         style="fill:#de8629;fill-opacity:1;fill-rule:evenodd;stroke:none"
         id="path74" />
      <path
         d="m 1620.04,972.516 v 49.534 h 10.19 v -49.534 h -10.19"
         style="fill:#de8629;fill-opacity:1;fill-rule:evenodd;stroke:none"
         id="path76" />
      <path
         d="m 1660.1,972.516 v 49.534 h 10.92 l 21.86,-28.409 c 0.73,-0.731 1.45,-2.188 2.18,-3.645 0.73,-1.457 1.46,-2.914 2.19,-5.094 0,1.457 0,2.911 -0.73,4.371 0,1.454 0,2.911 0,5.098 v 27.679 h 10.19 v -49.534 h -10.19 l -22.58,29.864 c -0.73,0.73 -1.46,1.46 -2.19,2.92 -0.73,1.45 -1.45,3.64 -2.18,5.83 0,-1.46 0,-2.92 0.73,-4.38 0,-1.45 0,-3.64 0,-5.82 v -28.414 h -10.2"
         style="fill:#de8629;fill-opacity:1;fill-rule:evenodd;stroke:none"
         id="path78" />
      <path
         d="m 1735.12,972.516 v 49.534 h 29.86 v -8.74 h -18.93 v -10.2 h 18.93 v -8.739 h -18.93 v -12.383 h 18.93 v -9.472 h -29.86"
         style="fill:#de8629;fill-opacity:1;fill-rule:evenodd;stroke:none"
         id="path80" />
      <path
         d="M 162.574,1045.36 H 1763.53 v -8.02 H 162.574 v 8.02"
         style="fill:#de8629;fill-opacity:1;fill-rule:evenodd;stroke:none"
         id="path82" />
      <path
         d="m 1729.3,818.84 v 8.008 c 2.18,0 4.36,0.726 5.82,2.914 1.46,1.457 2.18,3.644 2.18,6.551 0,3.644 -0.72,5.828 -2.18,7.285 -1.46,2.191 -3.64,2.918 -5.82,2.918 v 0 8.007 c 0.72,-0.726 2.18,-0.726 2.91,-1.46 2.18,-1.454 3.64,-2.911 5.09,-5.09 0,0.73 0,1.457 0,2.179 0,1.457 0,2.188 0,3.645 v 18.937 h 9.48 v -53.171 h -9.48 v 5.097 c -1.45,-2.183 -2.91,-3.644 -5.09,-4.371 -0.73,-0.726 -2.19,-1.449 -2.91,-1.449 z m 0,35.683 v -8.007 c -2.92,0 -5.1,-0.727 -6.57,-2.918 -1.45,-1.457 -2.18,-3.641 -2.18,-6.559 0,-3.633 0.73,-5.82 2.18,-7.277 1.47,-2.188 3.65,-2.914 6.57,-2.914 v 0 -8.008 c -1.46,0 -2.19,-0.727 -3.65,-0.727 -4.37,0 -8.01,2.176 -10.92,5.09 -2.92,3.645 -4.37,8.016 -4.37,13.11 0,5.828 1.45,10.203 4.37,13.839 2.91,2.911 6.55,4.371 10.92,4.371 1.46,0 2.19,0 3.65,0 z m -71.39,-36.41 v 9.461 c 2.92,0 5.1,0.731 6.56,2.188 1.45,2.187 2.18,4.375 2.18,6.551 0,2.914 -0.73,5.101 -2.18,6.558 -1.46,2.184 -3.64,2.918 -6.56,2.918 v 8.734 0 c 5.83,0 10.2,-1.46 13.84,-5.093 3.64,-3.641 5.1,-8.016 5.1,-13.117 0,-5.094 -1.46,-9.465 -5.1,-12.379 -3.64,-3.645 -8.01,-5.821 -13.84,-5.821 z m 35.7,26.942 c 0.72,2.918 2.18,5.097 4.36,7.285 1.46,1.457 3.64,2.183 6.56,2.183 0.73,0 1.45,0 2.91,0 0.73,-0.726 0.73,-0.726 0.73,-0.726 l -1.46,-10.199 c -0.73,0 -1.45,0.73 -2.18,0.73 -0.73,0 -1.46,0 -2.19,0 -2.91,0 -5.09,-0.73 -6.55,-2.187 -1.46,-1.457 -1.46,-3.641 -1.46,-7.286 v -15.292 h -10.19 v 33.5 h 9.47 z m -35.7,9.468 v -8.734 0 c -2.18,0 -4.36,-0.734 -6.55,-2.918 -1.46,-1.457 -2.18,-3.644 -2.18,-6.558 0,-2.176 0.72,-4.364 2.18,-6.551 2.19,-1.457 4.37,-2.188 6.55,-2.188 v 0 -9.461 c -5.09,0 -9.46,2.176 -13.11,5.821 -3.64,2.914 -5.1,7.285 -5.1,12.379 0,5.101 1.46,9.476 5.1,13.117 3.65,3.633 8.02,5.093 13.11,5.093 z M 1494.03,818.84 v 8.008 c 2.18,0 4.37,0.726 5.83,2.914 1.45,1.457 2.18,3.644 2.18,6.551 0,3.644 -0.73,5.828 -2.18,7.285 -1.46,2.191 -3.65,2.918 -5.83,2.918 v 0 8.007 c 0.73,-0.726 2.18,-0.726 2.92,-1.46 2.18,-1.454 3.64,-2.911 5.09,-5.09 v 5.09 h 8.75 v -33.5 h -8.75 v 5.097 c -1.45,-2.183 -2.91,-3.644 -5.09,-4.371 -0.74,-0.726 -2.19,-1.449 -2.92,-1.449 z m 23.31,6.551 7.28,4.371 c 0,-1.457 0.73,-2.188 2.18,-3.645 0.74,-0.726 2.19,-0.726 3.65,-0.726 1.46,0 2.91,0 3.64,0.726 1.46,0.731 1.46,1.457 1.46,2.188 0,2.187 -1.46,3.644 -4.37,4.371 -1.45,0.73 -2.19,0.73 -2.91,0.73 -3.65,1.449 -6.56,2.907 -8.02,4.364 -1.46,1.457 -2.18,3.644 -2.18,5.828 0,3.648 1.45,5.832 3.64,8.011 2.91,2.188 5.83,2.914 10.2,2.914 2.91,0 5.82,-0.726 8.01,-1.46 2.18,-1.454 3.64,-2.911 5.1,-5.09 l -7.29,-3.645 c -0.73,0.727 -1.45,2.188 -2.18,2.918 -0.73,0.727 -2.19,0.727 -3.64,0.727 -1.46,0 -2.92,0 -3.64,-0.727 -0.73,-0.73 -1.47,-1.457 -1.47,-2.191 0,-2.184 2.19,-3.641 7.29,-5.098 h 0.73 c 3.64,-1.457 6.56,-2.918 8.01,-4.371 1.46,-1.449 2.19,-3.637 2.19,-6.555 0,-2.914 -1.46,-5.828 -3.64,-7.285 -2.92,-2.183 -5.83,-3.633 -10.2,-3.633 -3.64,0 -6.56,0.727 -9.47,2.176 -2.19,1.457 -3.64,2.914 -4.37,5.102 z m 31.32,0 8.01,4.371 c 0,-1.457 0.73,-2.188 2.19,-3.645 0.72,-0.726 2.18,-0.726 3.64,-0.726 1.45,0 2.91,0 3.64,0.726 1.46,0.731 1.46,1.457 1.46,2.188 0,2.187 -1.46,3.644 -5.1,4.371 -0.73,0.73 -1.46,0.73 -2.19,0.73 -3.64,1.449 -6.56,2.907 -8.01,4.364 -1.46,1.457 -2.19,3.644 -2.19,5.828 0,3.648 1.46,5.832 3.64,8.011 2.92,2.188 5.83,2.914 10.2,2.914 2.92,0 5.83,-0.726 8.02,-1.46 2.18,-1.454 3.64,-2.911 4.37,-5.09 l -6.56,-3.645 c -0.73,0.727 -1.46,2.188 -2.18,2.918 -0.73,0.727 -2.19,0.727 -3.65,0.727 -1.45,0 -2.91,0 -3.64,-0.727 -0.73,-0.73 -1.45,-1.457 -1.45,-2.191 0,-2.184 2.18,-3.641 6.55,-5.098 0.73,0 1.46,0 1.46,0 3.64,-1.457 6.55,-2.918 8.01,-4.371 1.46,-1.449 2.19,-3.637 2.19,-6.555 0,-2.914 -1.46,-5.828 -3.65,-7.285 -2.91,-2.183 -6.55,-3.633 -10.92,-3.633 -2.92,0 -5.83,0.727 -8.75,2.176 -2.18,1.457 -3.64,2.914 -5.09,5.102 z m 64.82,27.672 5.1,-16.75 c 0,-0.727 0,-1.458 0,-2.176 0,-0.731 0.73,-2.918 0.73,-5.106 0,0.731 0.73,2.188 0.73,2.918 0.73,1.457 0.73,2.906 1.45,4.364 l 5.1,16.75 h 10.93 l -11.66,-33.5 h -10.92 l -5.1,17.476 c 0,0.731 0,0.731 0,1.461 -0.73,2.914 -1.45,5.098 -1.45,6.555 -0.73,-1.457 -0.73,-2.914 -1.46,-4.371 0,-0.727 0,-2.184 -0.73,-3.645 l -5.1,-17.476 h -10.2 l -11.65,33.5 h 10.19 l 5.1,-16.024 c 0.73,-2.184 1.46,-2.902 1.46,-4.363 0,-1.457 0.73,-2.184 0.73,-3.645 0,1.461 0.73,2.918 0.73,3.645 0,1.461 0.73,2.91 0.73,3.637 l 4.37,16.75 z m -119.45,1.46 v -8.007 c -2.91,0 -5.1,-0.727 -6.55,-2.918 -1.46,-1.457 -2.19,-3.641 -2.19,-7.285 0,-2.907 0.73,-5.094 2.19,-6.551 1.45,-2.188 3.64,-2.914 6.55,-2.914 v 0 -8.008 c -1.46,0 -2.18,-0.727 -3.64,-0.727 -4.37,0 -8.01,2.176 -10.93,5.09 -2.91,3.645 -4.37,8.016 -4.37,13.11 0,5.828 1.46,10.203 4.37,13.117 2.92,3.633 6.56,5.093 10.93,5.093 1.46,0 2.18,0 3.64,0 z m -42.24,-35.683 v 8.008 c 2.91,0 4.37,0.726 5.82,2.914 1.46,1.457 2.19,3.644 2.19,6.551 0,3.644 -0.73,5.828 -2.19,7.285 -1.45,2.191 -3.64,2.918 -5.82,2.918 v 8.007 c 0.73,0 2.18,0 2.91,0 5.1,0 8.74,-1.46 11.65,-5.093 2.19,-2.914 3.65,-7.289 3.65,-13.117 0,-5.094 -1.46,-9.465 -4.38,-13.11 -2.18,-2.914 -5.82,-5.09 -10.19,-5.09 -1.46,0 -2.91,0.727 -3.64,0.727 z m 0,35.683 v -8.007 0 c -2.92,0 -5.1,-0.727 -6.56,-2.918 -1.46,-1.457 -2.19,-3.641 -2.19,-7.285 0,-2.907 0.73,-5.094 2.19,-6.551 1.46,-2.188 3.64,-2.914 6.56,-2.914 v 0 -8.008 c -1.46,0 -2.19,0.723 -3.65,1.449 -1.45,0.727 -2.91,2.188 -4.37,4.371 0,-0.726 0,-1.457 0,-2.914 0,-0.73 0,-2.183 0,-3.633 V 804.27 h -9.47 v 48.793 h 9.47 v -5.09 c 1.46,2.179 2.92,3.636 4.37,5.09 1.46,0.734 2.19,0.734 3.65,1.46 z M 1385.5,818.84 v 8.008 c 2.91,0 5.1,0.726 6.56,2.914 1.46,1.457 2.19,3.644 2.19,6.551 0,3.644 -0.73,5.828 -2.19,7.285 -1.46,2.191 -3.65,2.918 -5.83,2.918 -0.73,0 -0.73,0 -0.73,0 v 8.007 c 1.46,-0.726 2.91,-0.726 3.64,-1.46 1.46,-1.454 3.65,-2.911 5.11,-5.09 0,0.73 0,1.457 0,2.179 0,1.457 0,2.188 0,3.645 v 18.937 h 8.73 v -53.171 h -9.46 l 0.73,5.097 c -1.46,-2.183 -2.92,-3.644 -5.11,-4.371 -0.73,-0.726 -2.18,-1.449 -3.64,-1.449 z m 0,35.683 v -8.007 c -2.18,0 -4.37,-0.727 -5.82,-2.918 -1.46,-1.457 -2.19,-3.641 -2.19,-6.559 0,-3.633 0.73,-5.82 2.19,-7.277 1.45,-2.188 3.64,-2.914 5.82,-2.914 v 0 -8.008 c -0.72,0 -2.18,-0.727 -2.91,-0.727 -4.37,0 -8.01,2.176 -10.93,5.09 -2.91,3.645 -4.37,8.016 -4.37,13.11 0,5.828 1.46,10.203 4.37,13.839 2.19,2.911 6.56,4.371 10.93,4.371 1.46,0 2.19,0 2.91,0 z m -40.79,-36.41 v 8.735 c 0,0 0,0 0.74,0 1.45,0 2.91,0.726 4.37,1.457 1.45,0 2.18,1.457 2.91,2.914 l 8.01,-4.371 c -1.46,-2.914 -3.65,-5.102 -6.56,-6.559 -2.91,-1.449 -5.82,-2.176 -9.47,-2.176 z m 0,16.024 v 5.82 h 8.02 c -0.73,2.184 -1.46,3.641 -2.91,5.098 -0.73,0.734 -2.92,1.461 -5.11,1.461 v 0 8.007 0 c 5.83,0 10.2,-1.46 13.11,-5.093 2.92,-2.914 4.38,-7.289 4.38,-12.391 0,-0.726 0,-0.726 0,-1.453 0,0 0,-0.731 0,-1.449 z m 0,20.386 v -8.007 c -2.18,0 -3.64,-0.727 -5.09,-1.461 -1.46,-1.457 -2.19,-2.914 -2.19,-5.098 h 7.28 v -5.82 h -8.01 c 0.73,-2.188 1.46,-4.375 2.92,-5.106 1.45,-1.457 2.91,-2.183 5.09,-2.183 v -8.735 c -5.09,0.727 -9.46,2.176 -12.37,5.09 -3.65,3.645 -5.11,8.016 -5.11,13.11 0,5.101 1.46,9.476 5.11,13.117 2.91,3.633 7.28,5.093 12.37,5.093 z m -263.67,-36.41 v 9.461 c 2.19,0 4.38,0.731 5.84,2.188 2.18,2.187 2.91,4.375 2.91,6.551 0,2.914 -0.73,5.101 -2.91,6.558 -1.46,2.184 -3.65,2.918 -5.84,2.918 v 8.734 0 c 5.1,0 9.48,-1.46 13.12,-5.093 3.64,-3.641 5.09,-8.016 5.09,-13.117 0,-5.094 -1.45,-9.465 -5.09,-12.379 -3.64,-3.645 -8.02,-5.821 -13.12,-5.821 z m 22.59,7.278 7.28,4.371 c 0.72,-1.457 1.45,-2.188 2.18,-3.645 1.46,-0.726 2.19,-0.726 4.37,-0.726 1.46,0 2.92,0 3.65,0.726 0.73,0.731 1.46,1.457 1.46,2.188 0,2.187 -2.19,3.644 -5.11,4.371 -0.72,0.73 -1.45,0.73 -2.18,0.73 -4.37,1.449 -6.56,2.907 -8.74,4.364 -1.46,1.457 -2.18,3.644 -2.18,5.828 0,3.648 1.45,5.832 4.36,8.011 2.19,2.188 5.83,2.914 10.2,2.914 2.92,0 5.1,-0.726 7.28,-1.46 2.19,-1.454 4.37,-2.911 5.1,-5.09 l -7.28,-3.645 c 0,0.727 -0.73,2.188 -2.18,2.918 -0.73,0.727 -2.19,0.727 -3.64,0.727 -1.46,0 -2.19,0 -2.92,-0.727 -1.46,-0.73 -1.46,-1.457 -1.46,-2.191 0,-2.184 2.19,-3.641 6.56,-5.098 0.73,0 0.73,0 1.46,0 3.63,-1.457 5.82,-2.918 7.28,-4.371 1.45,-1.449 2.91,-3.637 2.91,-6.555 0,-2.914 -1.46,-5.828 -4.37,-7.285 -2.19,-2.183 -5.82,-3.633 -10.2,-3.633 -3.64,0 -6.55,0.727 -8.74,2.176 -2.91,1.457 -4.36,2.914 -5.09,5.102 z m 36.41,-5.828 v 26.226 h -4.36 v 7.274 h 4.36 v 11.664 h 9.48 v -11.664 h 5.09 v -7.274 h -5.09 v -26.226 z m 42.98,0 v 26.226 h -4.37 v 7.274 h 4.37 v 11.664 h 10.19 v -11.664 h 4.38 v -7.274 h -4.38 v -26.226 z m 29.86,25.492 c 1.46,2.918 2.91,5.097 4.37,7.285 2.18,1.457 4.37,2.183 7.29,2.183 0,0 1.45,0 2.91,0 0,-0.726 0,-0.726 0.73,-0.726 l -1.46,-10.199 c -0.73,0 -1.45,0.73 -2.18,0.73 -0.73,0 -2.19,0 -2.92,0 -2.92,0 -5.1,-0.73 -5.83,-2.187 -1.45,-1.457 -2.18,-3.641 -2.18,-7.286 v -15.292 h -10.2 v 33.5 h 10.2 z m 29.14,8.008 v -17.477 c 0,-2.91 0.73,-5.094 1.45,-6.555 1.46,-0.726 2.92,-1.457 5.83,-1.457 2.18,0 4.37,0.731 5.83,1.457 0.73,1.461 1.46,3.645 1.46,6.555 v 17.477 h 9.46 v -17.477 c 0,-5.824 -1.46,-10.195 -3.64,-13.109 -2.91,-2.914 -7.28,-4.364 -13.11,-4.364 -5.83,0 -10.2,1.45 -13.11,4.364 -2.92,2.914 -4.37,7.285 -4.37,13.109 v 17.477 z m 30.59,-27.672 7.28,4.371 c 0,-1.457 0.73,-2.188 2.18,-3.645 0.73,-0.726 2.19,-0.726 3.65,-0.726 2.19,0 2.91,0 4.37,0.726 0.73,0.731 0.73,1.457 0.73,2.188 0,2.187 -1.46,3.644 -4.37,4.371 -1.46,0.73 -2.19,0.73 -2.91,0.73 -3.65,1.449 -6.56,2.907 -8.02,4.364 -1.45,1.457 -2.18,3.644 -2.18,5.828 0,3.648 1.45,5.832 3.64,8.011 2.91,2.188 6.56,2.914 10.2,2.914 3.64,0 5.82,-0.726 8,-1.46 2.19,-1.454 3.65,-2.911 5.11,-5.09 l -7.29,-3.645 c -0.73,0.727 -1.46,2.188 -2.18,2.918 -0.73,0.727 -2.19,0.727 -3.64,0.727 -1.46,0 -2.19,0 -3.64,-0.727 -0.74,-0.73 -0.74,-1.457 -0.74,-2.191 0,-2.184 2.19,-3.641 6.56,-5.098 h 0.73 c 3.64,-1.457 6.55,-2.918 8.01,-4.371 1.46,-1.449 2.19,-3.637 2.19,-6.555 0,-2.914 -0.73,-5.828 -3.65,-7.285 -2.91,-2.183 -5.82,-3.633 -10.19,-3.633 -3.65,0 -6.56,0.727 -9.47,2.176 -2.19,1.457 -3.64,2.914 -4.37,5.102 z m 36.41,-5.828 v 26.226 h -5.09 v 7.274 h 5.09 v 11.664 h 9.48 v -11.664 h 5.09 v -7.274 h -5.09 v -26.226 z m -227.98,34.96 v -8.734 0 c -2.91,0 -5.09,-0.734 -6.55,-2.918 -1.45,-1.457 -2.18,-3.644 -2.18,-6.558 0,-2.176 0.73,-4.364 2.18,-6.551 1.46,-1.457 3.64,-2.188 6.55,-2.188 v 0 -9.461 c -5.82,0 -10.19,2.176 -13.84,5.821 -3.63,2.914 -5.09,7.285 -5.09,12.379 0,5.101 1.46,9.476 5.09,13.117 3.65,3.633 8.02,5.093 13.84,5.093 z M 920.805,818.84 v 8.008 c 2.918,0 4.375,0.726 5.828,2.914 2.183,1.457 2.914,3.644 2.914,6.551 0,3.644 -0.731,5.828 -2.914,7.285 -1.453,2.191 -2.91,2.918 -5.828,2.918 v 0 8.007 c 1.465,-0.726 2.191,-0.726 2.918,-1.46 2.179,-1.454 3.636,-2.911 5.824,-5.09 -0.731,0.73 -0.731,1.457 -0.731,2.179 0,1.457 0,2.188 0,3.645 v 18.937 h 9.477 v -53.171 h -9.477 v 5.097 c -1.457,-2.183 -2.914,-3.644 -5.093,-4.371 -0.727,-0.726 -1.453,-1.449 -2.918,-1.449 z m 23.308,6.551 8.012,4.371 c 0,-1.457 0.734,-2.188 1.461,-3.645 1.457,-0.726 2.91,-0.726 4.367,-0.726 1.457,0 2.914,0 3.645,0.726 0.726,0.731 1.453,1.457 1.453,2.188 0,2.187 -1.453,3.644 -5.098,4.371 -0.73,0.73 -1.457,0.73 -2.18,0.73 -3.648,1.449 -6.562,2.907 -8.019,4.364 -1.457,1.457 -2.18,3.644 -2.18,5.828 0,3.648 0.723,5.832 3.637,8.011 2.914,2.188 5.832,2.914 10.199,2.914 2.914,0 5.098,-0.726 7.285,-1.46 2.184,-1.454 3.641,-2.911 4.371,-5.09 l -6.558,-3.645 c -0.727,0.727 -0.727,2.188 -1.457,2.918 -1.453,0.727 -2.184,0.727 -3.641,0.727 -1.457,0 -2.914,0 -3.637,-0.727 -0.73,-0.73 -1.46,-1.457 -1.46,-2.191 0,-2.184 2.183,-3.641 6.554,-5.098 0.731,0 1.457,0 1.457,0 2.914,-1.457 5.828,-2.918 7.285,-4.371 1.457,-1.449 2.18,-3.637 2.18,-6.555 0,-2.914 -1.453,-5.828 -3.637,-7.285 -2.914,-2.183 -5.828,-3.633 -10.199,-3.633 -2.91,0 -6.555,0.727 -8.742,2.176 -2.184,1.457 -4.371,2.914 -5.098,5.102 z m 66.277,-5.828 h -10.19 v 33.5 h 10.19 v -5.09 c 1.46,2.179 2.92,3.636 5.11,5.09 1.45,0.734 3.63,1.46 5.81,1.46 2.92,0 5.11,-0.726 6.57,-1.46 2.18,-1.454 2.91,-2.911 3.64,-5.09 2.18,2.179 3.64,3.636 5.82,5.09 1.46,0.734 3.65,1.46 6.56,1.46 2.19,0 4.37,-0.726 5.82,-1.46 1.46,-0.723 2.92,-2.18 3.65,-3.633 0.72,-1.457 0.72,-2.184 1.45,-3.641 0,-0.734 0,-2.918 0,-5.105 v -1.457 -19.664 h -9.46 v 16.75 c 0,4.371 -0.73,6.558 -1.46,8.015 -0.73,1.461 -2.19,2.188 -4.37,2.188 -2.19,0 -4.37,-0.727 -5.83,-2.918 -0.73,-1.457 -1.45,-5.098 -1.45,-8.743 v -15.292 h -9.48 v 16.75 c 0,4.371 -0.72,6.558 -1.46,8.015 -0.72,1.461 -2.18,2.188 -3.63,2.188 -2.91,0 -4.37,-0.727 -5.83,-2.918 -1.46,-1.457 -1.46,-5.098 -1.46,-8.743 z m -89.585,34.96 v -8.007 c -2.914,0 -5.098,-0.727 -6.555,-2.918 -1.457,-1.457 -2.187,-3.641 -2.187,-6.559 0,-3.633 0.73,-5.82 2.187,-7.277 1.457,-2.188 3.641,-2.914 6.555,-2.914 v 0 -8.008 c -1.457,0 -2.184,-0.727 -3.641,-0.727 -4.371,0 -8.008,2.176 -10.926,5.09 -2.183,3.645 -3.64,8.016 -3.64,13.11 0,5.828 1.457,10.203 3.64,13.839 2.918,2.911 6.555,4.371 11.653,4.371 0.73,0 2.187,0 2.914,0 z m -91.043,-36.41 v 9.461 c 2.914,0 5.093,0.731 6.551,2.188 1.457,2.187 2.187,4.375 2.187,6.551 0,2.914 -0.73,5.101 -2.187,6.558 -1.458,2.184 -3.637,2.918 -6.551,2.918 v 8.734 0 c 5.824,0 10.195,-1.46 13.836,-5.093 2.918,-3.641 5.101,-8.016 5.101,-13.117 0,-5.094 -2.183,-9.465 -5.101,-12.379 -3.641,-3.645 -8.012,-5.821 -13.836,-5.821 z m 35.687,26.942 c 0.727,2.918 2.184,5.097 4.371,7.285 1.457,1.457 3.645,2.183 6.559,2.183 0.73,0 1.453,0 2.91,0 0.731,-0.726 0.731,-0.726 0.731,-0.726 l -1.457,-10.199 c -0.731,0 -1.454,0.73 -2.184,0.73 -0.731,0 -1.461,0 -2.188,0 -2.914,0 -5.097,-0.73 -6.558,-2.187 -1.457,-1.457 -2.184,-3.641 -2.184,-7.286 v -15.292 h -9.469 v 33.5 h 9.469 z m 19.668,-25.492 v 53.171 h 9.469 v -53.171 z m -55.355,34.96 v -8.734 0 c -2.914,0 -5.102,-0.734 -6.559,-2.918 -1.457,-1.457 -2.183,-3.644 -2.183,-6.558 0,-2.176 0.726,-4.364 2.183,-6.551 1.457,-1.457 3.645,-2.188 6.559,-2.188 v 0 -9.461 c -5.102,0 -10.199,2.176 -13.11,5.821 -3.64,2.914 -5.832,7.285 -5.832,12.379 0,5.101 2.192,9.476 5.832,13.117 3.637,3.633 8.008,5.093 13.11,5.093 z m -120.184,-36.41 v 8.735 c 0,0 0,0 0.731,0 1.457,0 2.914,0.726 4.367,1.457 1.457,0 2.187,1.457 2.914,2.914 l 8.015,-4.371 c -1.457,-2.914 -3.644,-5.102 -6.558,-6.559 -2.914,-1.449 -5.824,-2.176 -9.469,-2.176 z m 0,16.024 v 5.82 h 8.012 c -0.727,2.184 -1.457,3.641 -2.184,5.098 -1.457,0.734 -3.64,1.461 -5.828,1.461 v 0 8.007 0 c 5.828,0 10.199,-1.46 13.113,-5.093 2.914,-2.914 4.372,-7.289 4.372,-12.391 0,-0.726 0,-0.726 0,-1.453 0,0 0,-0.731 0,-1.449 z m 75.758,18.926 4.363,-16.75 c 0.727,-0.727 0.727,-1.458 0.727,-2.176 0,-0.731 0,-2.918 0.73,-5.106 0,0.731 0.727,2.188 0.727,2.918 0,1.457 0.73,2.906 1.457,4.364 l 5.101,16.75 h 10.196 l -11.653,-33.5 h -10.195 l -5.101,17.476 c 0,0.731 0,0.731 0,1.461 -0.727,2.914 -1.458,5.098 -2.184,6.555 0,-1.457 0,-2.914 -0.731,-4.371 0,-0.727 -0.726,-2.184 -0.726,-3.645 l -5.098,-17.476 H 762.75 l -11.652,33.5 h 10.195 l 5.098,-16.024 c 0.73,-2.184 0.73,-2.902 1.461,-4.363 0,-1.457 0.73,-2.184 0.73,-3.645 0,1.461 0,2.918 0.727,3.645 0,1.461 0,2.91 0.73,3.637 l 4.363,16.75 z m -152.965,8.019 v -41.519 h -10.922 v 41.519 h -11.656 v 8.738 h 34.961 v -8.738 z m 77.207,-6.559 v -8.007 c -2.18,0 -3.64,-0.727 -5.098,-1.461 -1.457,-1.457 -2.187,-2.914 -2.187,-5.098 h 7.285 v -5.82 h -8.012 c 0.727,-2.188 1.457,-4.375 2.914,-5.106 1.458,-1.457 2.918,-2.183 5.098,-2.183 v -8.735 c -5.098,0.727 -9.469,2.176 -12.379,5.09 -3.64,3.645 -5.097,8.016 -5.097,13.11 0,5.101 1.457,9.476 5.097,13.117 2.91,3.633 7.281,5.093 12.379,5.093 z m -58.996,-34.96 v 53.171 h 9.473 v -18.937 c 0,-0.734 0,-2.188 0,-2.914 0,-0.731 0,-2.18 0,-2.91 2.183,2.179 3.636,3.636 5.824,5.09 2.184,0.734 4.367,1.46 7.281,1.46 2.188,0 4.375,-0.726 6.559,-1.46 1.457,-0.723 2.914,-2.18 3.636,-3.633 0.731,-1.457 0.731,-2.184 1.458,-3.641 0,-0.734 0,-2.918 0,-5.105 v -1.457 -19.664 h -9.465 v 16.75 c 0,4.371 -0.731,7.285 -1.457,8.015 -0.731,1.461 -2.914,2.188 -5.102,2.188 -1.453,0 -2.184,0 -3.641,-0.727 -1.457,-0.734 -2.179,-1.461 -2.91,-2.191 -0.726,-0.727 -0.726,-2.184 -1.461,-2.914 0,-1.457 0,-2.914 0,-5.098 v -0.731 -15.292 h -10.195"
         style="fill:#ffffff;fill-opacity:1;fill-rule:evenodd;stroke:none"
         id="path84" />
      <path
         d="m 1667.38,737.988 v 8.739 c 0,0 0,0 0.73,0 1.46,0 2.91,0.726 4.37,0.726 1.46,0.731 2.19,2.188 2.91,3.645 l 8.02,-4.371 c -1.46,-2.914 -3.64,-5.098 -6.56,-6.551 -2.91,-1.457 -5.83,-2.188 -9.47,-2.188 z m 0,16.024 v 5.824 h 8.01 c -0.72,2.184 -1.45,3.641 -2.18,5.098 -1.46,0.73 -3.64,1.457 -5.83,1.457 v 0 8.011 0 c 5.83,0 10.2,-1.449 13.12,-5.093 2.91,-2.918 4.36,-7.289 4.36,-13.11 0,0 0,0 0,-0.73 0,0 0,-0.727 0,-1.457 z m 34.23,-14.567 h -9.46 v 33.508 h 9.46 v -5.101 c 2.19,2.187 3.65,3.644 5.1,5.101 2.19,0.723 4.38,1.449 6.56,1.449 2.91,0 5.09,-0.726 6.55,-1.449 2.19,-1.457 2.91,-2.914 3.65,-5.832 1.46,2.918 3.64,4.375 5.83,5.832 1.45,0.723 3.63,1.449 5.82,1.449 2.92,0 4.37,-0.726 6.56,-1.449 1.45,-0.73 2.91,-2.187 3.64,-3.644 0.73,-1.457 0.73,-2.188 0.73,-3.645 0.73,-0.73 0.73,-2.914 0.73,-5.101 v -1.458 -19.66 h -10.2 v 16.754 c 0,4.364 0,6.551 -0.73,8.008 -0.73,1.457 -2.19,2.184 -4.37,2.184 -2.92,0 -4.37,-0.727 -5.83,-2.914 -0.72,-1.457 -1.45,-5.094 -1.45,-8.735 v -15.297 h -9.47 v 16.754 c 0,3.637 -0.73,6.551 -1.46,8.008 -0.73,1.457 -2.18,2.184 -4.37,2.184 -2.19,0 -4.37,-0.727 -5.1,-2.914 -1.46,-2.184 -2.19,-5.094 -2.19,-8.735 z m -34.23,34.957 v -8.011 c -2.18,0 -3.64,-0.727 -5.1,-1.457 -1.45,-1.457 -2.18,-2.914 -2.18,-5.098 h 7.28 v -5.824 h -8.01 c 0.73,-2.188 1.46,-4.371 2.91,-5.098 1.46,-1.461 2.92,-2.187 5.1,-2.187 v -8.739 c -5.1,0 -9.47,2.188 -12.38,5.102 -3.64,3.637 -5.1,8.008 -5.1,13.109 0,5.094 1.46,9.465 5.1,13.11 2.91,3.644 7.28,5.093 12.38,5.093 z m -227.97,-36.414 v 9.465 c 2.91,0 5.09,0.731 6.55,2.188 1.45,1.457 2.18,3.644 2.18,6.558 0,2.906 -0.73,5.094 -2.18,6.551 -1.46,1.457 -3.64,2.914 -6.55,2.914 v 8.738 0 c 5.82,0 10.19,-1.449 13.11,-5.093 3.64,-3.645 5.82,-8.016 5.82,-13.11 0,-5.101 -2.18,-9.472 -5.82,-13.109 -2.92,-2.914 -8.02,-5.102 -13.11,-5.102 z m 26.21,1.457 v 33.508 h 9.47 v -5.101 c 1.46,2.187 3.64,3.644 5.83,5.101 1.46,0.723 4.37,1.449 6.56,1.449 2.91,0 5.09,-0.726 6.55,-1.449 1.46,-0.73 2.92,-2.187 4.37,-3.644 0,-1.457 0.73,-2.188 0.73,-3.645 0,-0.73 0.73,-2.914 0.73,-5.101 v -1.458 -19.66 h -10.2 v 16.754 c 0,4.364 0,6.551 -1.46,8.008 -0.72,1.457 -2.18,2.184 -5.09,2.184 -0.73,0 -2.19,0 -3.65,-0.727 -0.73,-0.73 -1.45,-1.457 -2.18,-2.187 -0.73,-1.457 -1.46,-2.184 -1.46,-2.914 -0.73,-1.458 -0.73,-2.911 -0.73,-5.094 v -0.727 -15.297 z m 61.18,5.825 8.02,4.371 c 0,-1.457 0.73,-2.914 1.46,-3.645 1.45,-0.726 2.91,-0.726 4.37,-0.726 1.45,0 2.91,0 3.64,0.726 0.73,0.731 1.46,1.457 1.46,2.188 0,2.183 -1.46,2.914 -5.1,4.371 -0.73,0 -1.46,0.73 -2.19,0.73 -3.64,1.457 -6.55,2.914 -8.01,4.367 -1.46,1.453 -2.18,3.641 -2.18,5.825 0,2.914 1.46,5.832 3.64,8.019 2.91,2.18 5.82,2.906 10.19,2.906 2.92,0 5.83,-0.726 8.01,-1.449 2.19,-1.457 3.64,-2.914 4.37,-5.101 l -6.55,-3.645 c -0.73,0.727 -1.45,2.184 -2.18,2.914 -1.46,0 -2.19,0.731 -3.65,0.731 -1.45,0 -2.91,0 -3.64,-0.731 -0.73,-0.73 -1.46,-1.457 -1.46,-2.187 0,-2.184 2.19,-3.641 6.56,-5.098 0.73,0 1.46,0 1.46,0 3.64,-1.453 6.55,-2.91 8.01,-4.367 1.45,-1.457 2.18,-3.645 2.18,-6.555 0,-2.918 -1.46,-5.824 -3.64,-8.012 -2.91,-1.457 -6.55,-2.914 -10.92,-2.914 -2.92,0 -6.56,0.731 -8.74,2.188 -2.18,1.453 -3.64,2.914 -5.11,5.094 z m 43.71,-2.911 -13.11,30.594 h 10.92 l 5.83,-15.301 c 0.73,-0.726 0.73,-2.183 0.73,-2.91 0.73,-1.457 0.73,-2.918 0.73,-4.375 0,1.457 0.73,2.188 0.73,3.645 0.73,1.457 0.73,2.914 1.45,4.371 l 5.1,14.57 h 10.93 l -19.67,-48.805 h -10.92 z m 24.76,2.911 7.29,4.371 c 0,-1.457 0.73,-2.914 2.18,-3.645 0.73,-0.726 2.19,-0.726 3.65,-0.726 2.18,0 2.91,0 4.36,0.726 0.73,0.731 0.73,1.457 0.73,2.188 0,2.183 -1.45,2.914 -4.37,4.371 -1.45,0 -2.18,0.73 -2.18,0.73 -4.37,1.457 -7.29,2.914 -8.74,4.367 -1.46,1.453 -2.19,3.641 -2.19,5.825 0,2.914 1.46,5.832 3.64,8.019 2.92,2.18 6.56,2.906 10.2,2.906 3.64,0 5.83,-0.726 8.02,-1.449 2.18,-1.457 3.63,-2.914 5.09,-5.101 l -7.28,-3.645 c -0.73,0.727 -0.73,2.184 -2.19,2.914 -0.73,0 -2.18,0.731 -3.64,0.731 -1.45,0 -2.18,0 -3.64,-0.731 -0.73,-0.73 -0.73,-1.457 -0.73,-2.187 0,-2.184 2.19,-3.641 6.56,-5.098 h 0.72 c 3.65,-1.453 6.56,-2.91 8.02,-4.367 1.45,-1.457 2.18,-3.645 2.18,-6.555 0,-2.918 -0.73,-5.824 -3.64,-8.012 -2.18,-1.457 -5.83,-2.914 -10.2,-2.914 -3.64,0 -6.55,0.731 -8.74,2.188 -2.91,1.453 -4.37,2.914 -5.1,5.094 z m 36.42,-5.825 v 26.219 h -5.1 v 7.289 h 5.1 v 11.652 h 9.47 v -11.652 h 5.1 v -7.289 h -5.1 v -26.219 z m -192.28,34.957 v -8.738 0 c -2.92,0 -5.11,-1.457 -6.57,-2.914 -1.45,-1.457 -2.18,-3.645 -2.18,-6.551 0,-2.914 0.73,-5.101 2.18,-6.558 1.46,-1.457 3.65,-2.188 6.57,-2.188 v 0 -9.465 c -5.11,0 -10.2,2.188 -13.12,5.102 -3.64,3.637 -5.83,8.008 -5.83,13.109 0,5.094 2.19,9.465 5.83,13.11 2.92,3.644 8.01,5.093 13.12,5.093 z m -115.09,-36.414 v 8.739 0 c 2.18,0 3.64,0.726 5.1,0.726 0.73,0.731 2.19,2.188 2.92,3.645 l 8.01,-4.371 c -2.19,-2.914 -4.38,-5.098 -6.56,-6.551 -2.91,-1.457 -5.83,-2.188 -9.47,-2.188 z m 0,16.024 v 5.824 h 8.02 c -0.73,2.184 -1.46,3.641 -2.92,5.098 -0.73,0.73 -2.92,1.457 -5.1,1.457 v 0 8.011 0 c 5.83,0 9.47,-1.449 13.11,-5.093 2.92,-2.918 4.37,-7.289 4.37,-13.11 0,0 0,0 0,-0.73 0,0 0,-0.727 0,-1.457 z m 49.53,-13.11 c -1.46,-0.726 -2.91,-1.457 -4.37,-2.183 -1.46,0 -2.91,-0.731 -4.37,-0.731 -5.83,0 -10.2,2.188 -13.11,5.102 -3.64,3.637 -5.1,8.008 -5.1,13.109 0,5.821 1.46,10.192 5.1,13.11 2.91,3.644 7.28,5.093 13.11,5.093 1.46,0 2.91,0 4.37,-0.726 1.46,0 2.91,-0.723 4.37,-1.453 v -9.473 c -1.46,0.727 -2.19,1.457 -3.64,2.184 -1.46,0.73 -2.92,0.73 -4.37,0.73 -2.91,0 -5.1,-0.73 -6.56,-2.187 -1.46,-2.184 -2.19,-4.372 -2.19,-7.278 0,-2.187 0.73,-5.101 2.19,-6.558 1.46,-1.457 4.38,-2.188 6.56,-2.188 2.18,0 3.64,0 4.37,0.731 1.45,0.73 2.18,1.457 3.64,2.914 z m 8.74,-1.457 v 26.219 h -5.1 v 7.289 h 5.1 v 11.652 h 9.47 v -11.652 h 4.37 v -7.289 h -4.37 v -26.219 z m 19.67,47.344 c 0,1.457 0.72,2.91 1.45,4.367 1.46,0.727 2.92,1.457 4.38,1.457 1.45,0 2.91,-0.73 3.63,-1.457 1.46,-1.457 2.19,-2.91 2.19,-4.367 0,-1.457 -0.73,-2.914 -2.19,-3.641 -0.72,-1.46 -2.18,-2.187 -3.63,-2.187 -1.46,0 -2.92,0.727 -4.38,2.187 -0.73,0.727 -1.45,2.184 -1.45,3.641 z m 0.72,-47.344 v 33.508 h 10.2 v -33.508 z m -78.66,34.957 v -8.011 c -2.18,0 -3.64,-0.727 -5.1,-1.457 -1.45,-1.457 -2.18,-2.914 -2.18,-5.098 h 7.28 v -5.824 h -8.01 c 0.73,-2.188 1.46,-4.371 2.91,-5.098 1.46,-1.461 2.92,-2.187 5.1,-2.187 v -8.739 c -5.1,0 -9.47,2.188 -13.11,5.102 -2.91,3.637 -4.37,8.008 -4.37,13.109 0,5.094 1.46,9.465 5.1,13.11 2.91,3.644 7.28,5.093 12.38,5.093 z m -63.37,-36.414 v 9.465 c 2.92,0 5.1,0.731 6.56,2.188 1.45,1.457 2.19,3.644 2.19,6.558 0,2.906 -0.74,5.094 -2.19,6.551 -1.46,1.457 -3.64,2.914 -6.56,2.914 v 8.738 0 c 5.83,0 10.2,-1.449 13.84,-5.093 2.92,-3.645 5.1,-8.016 5.1,-13.11 0,-5.101 -2.18,-9.472 -5.1,-13.109 -3.64,-2.914 -8.01,-5.102 -13.84,-5.102 z m 27.68,1.457 v 26.219 h -5.09 v 7.289 h 5.09 v 11.652 h 9.47 v -11.652 h 4.37 v -7.289 h -4.37 v -26.219 z m -27.68,34.957 v -8.738 0 c -2.91,0 -4.36,-1.457 -6.55,-2.914 -1.46,-1.457 -2.19,-3.645 -2.19,-6.551 0,-2.914 0.73,-5.101 2.19,-6.558 2.19,-1.457 3.64,-2.188 6.55,-2.188 v 0 -9.465 c -5.09,0 -9.47,2.188 -13.11,5.102 -3.64,3.637 -5.82,8.008 -5.82,13.109 0,5.094 2.18,9.465 5.82,13.11 3.64,3.644 8.02,5.093 13.11,5.093 z m -70.65,-35.683 v 8.008 c 2.19,0 4.37,0.726 5.83,2.914 1.46,1.457 2.19,3.644 2.19,6.558 0,3.637 -0.73,5.821 -2.19,7.278 -1.46,2.187 -3.64,2.914 -5.83,2.914 v 7.285 c 0.73,0.726 2.19,0.726 2.91,0.726 5.11,0 8.75,-1.449 10.93,-5.093 2.91,-2.918 4.37,-7.289 4.37,-13.11 0,-5.101 -1.46,-9.472 -4.37,-13.109 -2.18,-2.914 -5.82,-5.102 -10.19,-5.102 -1.46,0 -2.92,0.731 -3.65,0.731 z m 34.97,26.215 c 0.72,2.918 2.18,5.105 4.36,7.289 1.46,1.453 4.37,2.179 6.56,2.179 0.72,0 2.19,0 2.91,-0.726 0.73,0 0.73,0 0.73,0 l -1.45,-10.199 c -0.74,0 -1.47,0.73 -2.19,0.73 -0.73,0 -1.46,0 -2.19,0 -2.91,0 -5.09,-0.73 -6.55,-2.187 -1.46,-1.457 -1.46,-4.368 -1.46,-7.278 v -15.297 h -10.2 v 33.508 h 9.48 z m -34.97,8.742 v -7.285 0 c -2.91,0 -5.1,-0.727 -6.55,-2.914 -1.46,-1.457 -2.19,-3.641 -2.19,-7.278 0,-2.914 0.73,-5.101 2.19,-6.558 1.45,-2.188 3.64,-2.914 6.55,-2.914 v 0 -8.008 c -1.46,0 -2.19,0.726 -3.64,0.726 -1.46,1.457 -2.91,2.914 -4.37,5.094 0,-0.726 0,-2.18 0,-2.91 0,-0.727 0,-2.184 0,-3.641 v -13.84 h -9.47 v 48.805 h 9.47 v -5.101 c 0.73,2.187 2.91,3.644 4.37,5.101 1.45,0 2.18,0.723 3.64,0.723 z m -137.66,-34.957 v 8.008 c 2.91,0 5.1,0.726 6.56,2.914 1.45,1.457 2.18,3.644 2.18,6.558 0,3.637 -0.73,5.821 -2.18,7.278 -1.46,2.187 -3.65,2.914 -6.56,2.914 v 0 7.285 c 1.45,0 2.91,-0.723 3.64,-0.723 2.18,-1.457 3.65,-2.914 5.1,-5.101 v 5.101 h 8.74 v -33.508 h -9.47 v 5.094 c -0.72,-2.18 -2.91,-3.637 -4.37,-5.094 -0.73,0 -2.19,-0.726 -3.64,-0.726 z m 51.72,2.183 c -1.46,-0.726 -2.92,-1.457 -4.38,-2.183 -1.46,0 -2.91,-0.731 -5.1,-0.731 -5.09,0 -9.46,2.188 -12.38,5.102 -3.64,3.637 -5.09,8.008 -5.09,13.109 0,5.821 1.45,10.192 5.09,13.11 2.92,3.644 7.29,5.093 13.11,5.093 1.46,0 2.91,0 4.37,-0.726 1.46,0 2.92,-0.723 4.38,-1.453 v -9.473 c -1.46,0.727 -2.19,1.457 -3.65,2.184 -1.46,0.73 -2.91,0.73 -4.37,0.73 -2.91,0 -5.09,-0.73 -6.55,-2.187 -1.46,-2.184 -2.19,-4.372 -2.19,-7.278 0,-2.187 0.73,-5.101 2.19,-6.558 1.46,-1.457 3.64,-2.188 6.55,-2.188 1.46,0 2.91,0 4.37,0.731 1.46,0.73 2.19,1.457 3.65,2.914 z m 7.27,51.711 h 9.48 v -34.23 l 12.38,14.57 h 11.65 l -13.11,-14.57 14.57,-18.938 h -11.65 l -13.84,18.207 v -18.207 h -9.48 z m -58.99,-18.937 v -7.285 c -2.19,0 -4.37,-0.727 -5.82,-2.914 -1.46,-1.457 -2.19,-3.641 -2.19,-7.278 0,-2.914 0.73,-5.101 2.19,-6.558 1.45,-2.188 3.63,-2.914 5.82,-2.914 v 0 -8.008 c -0.73,0 -2.19,-0.731 -2.92,-0.731 -5.09,0 -8.01,2.188 -10.92,5.102 -2.92,3.637 -4.37,8.008 -4.37,13.109 0,5.821 1.45,10.192 4.37,13.11 2.19,3.644 5.83,5.093 10.92,5.093 1.46,0 2.19,0 2.92,-0.726 z m -85.945,-34.957 v 8.008 c 2.914,0 5.094,0.726 6.551,2.914 1.457,1.457 2.184,3.644 2.184,6.558 0,3.637 -0.727,5.821 -2.184,7.278 -2.18,2.187 -3.637,2.914 -6.551,2.914 v 0 7.285 c 1.457,0 2.184,-0.723 3.641,-0.723 1.453,-1.457 2.91,-2.914 4.367,-5.101 v 5.101 h 9.473 v -33.508 h -9.473 v 5.094 c -1.457,-2.18 -2.914,-3.637 -4.367,-5.094 -1.457,0 -2.184,-0.726 -3.641,-0.726 z m 27.676,0.726 v 26.219 h -4.375 v 7.289 h 4.375 v 11.652 h 10.199 v -11.652 h 4.37 v -7.289 h -4.37 v -26.219 z m 21.849,0 v 26.219 h -5.09 v 7.289 h 5.09 v 11.652 h 9.47 v -11.652 h 5.1 v -7.289 h -5.1 v -26.219 z m -49.525,34.231 v -7.285 c -2.914,0 -3.644,-0.727 -5.097,-2.914 -2.188,-1.457 -2.918,-3.641 -2.918,-7.278 0,-2.914 0.73,-5.101 2.918,-6.558 1.453,-2.188 2.183,-2.914 5.097,-2.914 v 0 -8.008 c -0.734,0 -2.187,-0.731 -2.914,-0.731 -4.371,0 -8.008,2.188 -10.922,5.102 -2.191,3.637 -3.648,8.008 -3.648,13.109 0,5.821 1.457,10.192 3.648,13.11 2.914,3.644 6.551,5.093 10.922,5.093 0.727,0 2.18,0 2.914,-0.726 z m -61.914,-35.688 v 8.739 c 0,0 0,0 0.727,0 1.461,0 2.918,0.726 4.375,0.726 1.453,0.731 2.18,2.188 2.91,3.645 l 8.012,-4.371 c -1.457,-2.914 -3.641,-5.098 -6.555,-6.551 -2.187,-1.457 -5.824,-2.188 -9.469,-2.188 z m 0,16.024 v 5.824 h 8.012 c -0.73,2.184 -1.457,3.641 -2.184,5.098 -1.453,0.73 -3.64,1.457 -5.828,1.457 v 0 8.011 0 c 5.828,0 10.196,-1.449 13.11,-5.093 2.914,-2.918 4.379,-7.289 4.379,-13.11 0,0 0,0 0,-0.73 0,0 0,-0.727 0,-1.457 z m 0,20.39 v -8.011 c -2.183,0 -3.644,-0.727 -5.097,-1.457 -1.457,-1.457 -2.188,-2.914 -2.188,-5.098 h 7.285 v -5.824 h -8.011 c 0.726,-2.188 1.457,-4.371 2.914,-5.098 1.453,-1.461 2.914,-2.187 5.097,-2.187 v -8.739 c -5.097,0 -9.468,2.188 -12.379,5.102 -3.644,3.637 -5.101,8.008 -5.101,13.109 0,5.094 1.457,9.465 5.101,13.11 2.911,3.644 7.282,5.093 12.379,5.093 z M 802.813,737.988 v 9.465 c 2.179,0 4.367,0.731 6.55,2.188 1.457,1.457 2.188,3.644 2.188,6.558 0,2.906 -0.731,5.094 -2.188,6.551 -2.183,1.457 -3.64,2.914 -6.55,2.914 v 8.738 0 c 5.093,0 9.464,-1.449 13.113,-5.093 3.637,-3.645 5.82,-8.016 5.82,-13.11 0,-5.101 -2.183,-9.472 -5.82,-13.109 -3.649,-2.914 -8.02,-5.102 -13.113,-5.102 z m 35.687,26.946 c 0.727,2.918 2.184,5.105 3.641,7.289 2.187,1.453 4.375,2.179 7.285,2.179 0.726,0 1.457,0 2.914,-0.726 h 0.726 l -1.457,-10.199 c -0.726,0 -1.457,0.73 -2.183,0.73 -0.727,0 -1.453,0 -2.18,0 -3.648,0 -5.105,-0.73 -6.562,-2.187 -1.457,-1.457 -2.184,-4.368 -2.184,-7.278 v -15.297 h -9.473 v 33.508 h 9.473 z m 43.703,-24.032 c -1.457,-0.726 -2.914,-1.457 -4.371,-2.183 -1.453,0 -2.914,-0.731 -4.367,-0.731 -5.832,0 -10.195,2.188 -13.113,5.102 -3.641,3.637 -5.098,8.008 -5.098,13.109 0,5.821 1.457,10.192 5.098,13.11 2.918,3.644 7.281,5.093 13.113,5.093 1.453,0 2.914,0 4.367,-0.726 1.457,0 2.914,-0.723 4.371,-1.453 v -9.473 c -1.457,0.727 -2.183,1.457 -3.64,2.184 -1.454,0.73 -2.915,0.73 -4.372,0.73 -2.914,0 -5.097,-0.73 -6.558,-2.187 -1.457,-2.184 -2.184,-4.372 -2.184,-7.278 0,-2.187 0.727,-5.101 2.184,-6.558 1.461,-1.457 3.644,-2.188 6.558,-2.188 2.188,0 2.918,0 4.372,0.731 1.457,0.73 2.183,1.457 3.64,2.914 z m -79.39,33.5 v -8.738 0 c -2.915,0 -5.102,-1.457 -6.559,-2.914 -1.457,-1.457 -2.184,-3.645 -2.184,-6.551 0,-2.914 0.727,-5.101 2.184,-6.558 1.457,-1.457 3.644,-2.188 6.559,-2.188 v 0 -9.465 c -5.829,0 -10.2,2.188 -13.836,5.102 -2.914,3.637 -5.102,8.008 -5.102,13.109 0,5.094 2.188,9.465 5.102,13.11 3.636,3.644 8.007,5.093 13.836,5.093 z m -85.95,-36.414 v 8.739 0 c 2.184,0 3.641,0.726 4.371,0.726 1.457,0.731 2.914,2.188 3.641,3.645 l 8.012,-4.371 c -2.188,-2.914 -4.367,-5.098 -6.555,-6.551 -2.91,-1.457 -5.828,-2.188 -9.469,-2.188 z m 0,16.024 v 5.824 h 7.285 c 0,2.184 -0.726,3.641 -2.187,5.098 -1.457,0.73 -2.914,1.457 -5.098,1.457 v 0 8.011 0 c 5.098,0 9.469,-1.449 12.379,-5.093 3.645,-2.918 5.102,-7.289 5.102,-13.11 0,0 0,0 0,-0.73 0,0 0,-0.727 -0.731,-1.457 z m 47.344,-14.567 v 26.219 h -4.371 v 7.289 h 4.371 v 8.008 c 0,4.371 0.727,7.285 2.914,9.465 2.188,2.187 5.828,2.914 10.195,2.914 0.731,0 1.457,0 2.188,0 0.726,0 1.457,-0.727 2.184,-0.727 v -8.008 c 0,0.727 -0.727,0.727 -1.458,0.727 -0.726,0.731 -0.726,0.731 -1.457,0.731 -2.183,0 -2.914,-0.731 -3.64,-1.458 -0.731,-0.73 -1.457,-2.917 -1.457,-5.101 v -6.551 h 6.554 v -7.289 h -6.554 v -26.219 z m -47.344,34.957 v -8.011 c -2.187,0 -4.371,-0.727 -5.097,-1.457 -1.457,-1.457 -2.188,-2.914 -2.911,-5.098 h 8.008 v -5.824 h -8.008 c 0,-2.188 1.454,-4.371 2.18,-5.098 1.457,-1.461 3.641,-2.187 5.828,-2.187 v -8.739 c -5.828,0 -10.199,2.188 -13.113,5.102 -2.914,3.637 -4.371,8.008 -4.371,13.109 0,5.094 1.457,9.465 4.371,13.11 3.648,3.644 8.016,5.093 13.113,5.093 z M 581.387,738.719 v 8.008 c 2.914,0 5.097,0.726 6.554,2.914 1.457,1.457 2.188,3.644 2.188,6.558 0,3.637 -0.731,5.821 -2.188,7.278 -1.457,2.187 -3.64,2.914 -6.554,2.914 v 7.285 c 1.457,0.726 2.183,0.726 3.644,0.726 4.367,0 8.008,-1.449 10.922,-5.093 2.914,-2.918 4.375,-7.289 4.375,-13.11 0,-5.101 -1.461,-9.472 -4.375,-13.109 -2.914,-2.914 -6.555,-5.102 -10.922,-5.102 -0.73,0 -2.187,0.731 -3.644,0.731 z m 35.691,26.215 c 0.727,2.918 2.184,5.105 4.371,7.289 1.453,1.453 3.637,2.179 6.551,2.179 0.73,0 1.457,0 2.918,-0.726 0.73,0 0.73,0 0.73,0 l -1.46,-10.199 c -0.731,0 -1.458,0.73 -2.188,0.73 -0.727,0 -1.457,0 -2.184,0 -2.914,0 -5.097,-0.73 -6.554,-2.187 -1.457,-1.457 -2.184,-4.368 -2.184,-7.278 v -15.297 h -9.473 v 33.508 h 9.473 z m 28.406,8.019 v -17.484 c 0,-2.914 0.731,-5.102 2.18,-6.555 0.734,-0.73 2.918,-1.461 5.102,-1.461 2.914,0 4.371,0.731 5.828,1.461 1.461,1.453 1.461,3.641 1.461,6.555 v 17.484 h 10.191 v -17.484 c 0,-5.828 -1.457,-10.199 -4.367,-13.11 -2.91,-2.914 -7.285,-4.371 -13.113,-4.371 -5.825,0 -10.196,1.457 -12.383,4.371 -2.91,2.911 -4.367,7.282 -4.367,13.11 v 17.484 z m 34.961,-33.508 v 26.219 h -4.367 v 7.289 h 4.367 v 11.652 h 10.196 v -11.652 h 4.371 v -7.289 h -4.371 v -26.219 z m -99.058,34.231 v -7.285 0 c -2.188,0 -4.371,-0.727 -5.824,-2.914 -1.458,-1.457 -2.188,-3.641 -2.188,-7.278 0,-2.914 0.73,-5.101 2.188,-6.558 1.453,-2.188 3.636,-2.914 5.824,-2.914 v 0 -8.008 c -0.731,0 -2.188,0.726 -2.914,0.726 -2.184,1.457 -3.641,2.914 -5.098,5.094 l 0.73,-5.094 h -9.472 v 53.168 h 8.742 v -18.937 c 0,-1.453 0,-2.18 0,-2.91 0,-1.457 0,-2.184 0,-3.645 1.457,2.918 2.914,4.375 5.098,5.832 0.726,0 2.183,0.723 2.914,0.723 z m -65.551,-34.957 v 8.008 c 2.906,0 5.094,0.726 6.551,2.914 1.461,1.457 2.187,3.644 2.187,6.558 0,3.637 -0.726,5.821 -2.187,7.278 -2.184,2.187 -3.645,2.914 -6.551,2.914 v 0 8.011 c 1.453,-0.726 2.18,-0.726 3.637,-1.449 1.457,-1.457 2.914,-2.914 5.101,-5.832 0,1.461 -0.726,2.188 -0.726,2.918 0,1.457 0,2.184 0,3.637 v 18.937 h 9.465 v -53.168 h -9.465 v 5.094 c -1.461,-2.18 -2.918,-3.637 -4.375,-5.094 -1.457,0 -2.184,-0.726 -3.637,-0.726 z m 0,35.683 v -8.011 c -2.914,0 -4.371,-0.727 -5.828,-2.914 -2.188,-1.457 -2.914,-3.641 -2.914,-7.278 0,-2.914 0.726,-5.101 2.183,-6.558 2.188,-2.188 3.645,-2.914 6.559,-2.914 v 0 -8.008 c -0.731,0 -2.188,-0.731 -3.645,-0.731 -4.371,0 -8.011,2.188 -10.925,5.102 -2.184,3.637 -3.641,8.008 -3.641,13.109 0,5.821 1.457,10.192 3.641,13.11 2.914,3.644 6.554,5.093 11.656,5.093 0.726,0 2.183,0 2.914,0 z m -85.949,-35.683 v 8.008 c 2.183,0 4.367,0.726 5.828,2.914 1.453,1.457 2.18,3.644 2.18,6.558 0,3.637 -0.727,5.821 -2.18,7.278 -1.461,2.187 -3.645,2.914 -5.828,2.914 v 0 7.285 c 0.726,0 2.183,-0.723 2.914,-0.723 2.183,-1.457 3.64,-2.914 5.094,-5.101 v 5.101 h 9.472 v -33.508 h -9.472 v 5.094 c -1.454,-2.18 -2.911,-3.637 -5.094,-5.094 -0.731,0 -2.188,-0.726 -2.914,-0.726 z m 26.222,0.726 v 33.508 h 9.469 v -5.101 c 2.184,2.187 3.641,3.644 5.824,5.101 2.184,0.723 4.371,1.449 6.555,1.449 2.914,0 5.102,-0.726 6.559,-1.449 2.183,-0.73 3.64,-2.187 4.367,-3.644 0.726,-1.457 0.726,-2.188 1.457,-3.645 0,-0.73 0,-2.914 0,-5.101 v -1.458 -19.66 h -9.469 v 16.754 c 0,4.364 -0.726,6.551 -1.457,8.008 -1.457,1.457 -2.914,2.184 -5.098,2.184 -1.457,0 -2.914,0 -3.644,-0.727 -1.453,-0.73 -2.18,-1.457 -2.91,-2.187 -0.727,-1.457 -1.461,-2.184 -1.461,-2.914 0,-1.458 0,-2.911 0,-5.094 v -0.727 -15.297 z m -26.222,34.231 v -7.285 c -2.914,0 -5.098,-0.727 -6.559,-2.914 -1.453,-1.457 -2.183,-3.641 -2.183,-7.278 0,-2.914 0.73,-5.101 2.183,-6.558 1.461,-2.188 3.645,-2.914 6.559,-2.914 v 0 -8.008 c -1.457,0 -2.184,-0.731 -3.641,-0.731 -4.371,0 -8.012,2.188 -10.93,5.102 -2.91,3.637 -4.367,8.008 -4.367,13.109 0,5.821 1.457,10.192 4.367,13.11 2.918,3.644 6.559,5.093 10.93,5.093 1.457,0 2.184,0 3.641,-0.726 z M 338.84,737.988 v 8.739 0 c 2.183,0 3.64,0.726 4.371,0.726 1.457,0.731 2.91,2.188 3.641,3.645 l 8.007,-4.371 c -2.179,-2.914 -4.363,-5.098 -6.55,-6.551 -2.914,-1.457 -5.829,-2.188 -9.469,-2.188 z m 0,16.024 v 5.824 h 7.281 c 0,2.184 -0.726,3.641 -2.183,5.098 -1.458,0.73 -2.915,1.457 -5.098,1.457 v 0 8.011 0 c 5.098,0 9.469,-1.449 12.383,-5.093 3.636,-2.918 5.097,-7.289 5.097,-13.11 0,0 0,0 0,-0.73 0,0 0,-0.727 -0.73,-1.457 z m 34.234,10.922 c 0.727,2.918 2.184,5.105 3.641,7.289 2.183,1.453 4.371,2.179 7.285,2.179 0.727,0 1.449,0 2.914,-0.726 h 0.727 l -1.461,-10.199 c -0.731,0 -1.453,0.73 -2.18,0.73 -0.727,0 -1.453,0 -2.914,0 -2.914,0 -5.102,-0.73 -5.828,-2.187 -1.457,-1.457 -2.184,-4.368 -2.184,-7.278 v -15.297 h -9.472 v 33.508 h 9.472 z m -34.234,9.468 v -8.011 c -2.184,0 -4.367,-0.727 -5.098,-1.457 -1.461,-1.457 -2.187,-2.914 -2.918,-5.098 h 8.016 v -5.824 h -8.016 c 0,-2.188 1.457,-4.371 2.188,-5.098 1.461,-1.461 3.644,-2.187 5.828,-2.187 v -8.739 c -5.828,0 -10.195,2.188 -13.11,5.102 -2.914,3.637 -4.371,8.008 -4.371,13.109 0,5.094 1.457,9.465 4.371,13.11 3.637,3.644 8.012,5.093 13.11,5.093 z m -42.973,-35.683 v 8.008 c 2.914,0 5.094,0.726 6.551,2.914 1.461,1.457 2.191,3.644 2.191,6.558 0,3.637 -0.73,5.821 -2.191,7.278 -1.457,2.187 -3.637,2.914 -5.824,2.914 h -0.727 v 8.011 c 1.457,-0.726 2.914,-0.726 3.641,-1.449 1.453,-1.457 3.644,-2.914 5.101,-5.832 0,1.461 0,2.188 0,2.918 0,1.457 0,2.184 0,3.637 v 18.937 h 8.735 v -53.168 h -9.465 l 0.73,5.094 c -1.457,-2.18 -2.918,-3.637 -5.101,-5.094 -0.727,0 -2.184,-0.726 -3.641,-0.726 z m 0,35.683 v -8.011 c -2.187,0 -4.371,-0.727 -5.828,-2.914 -1.457,-1.457 -2.184,-3.641 -2.184,-7.278 0,-2.914 0.727,-5.101 2.184,-6.558 1.457,-2.188 3.641,-2.914 5.828,-2.914 v 0 -8.008 c -0.73,0 -2.187,-0.731 -2.914,-0.731 -4.371,0 -8.015,2.188 -10.926,5.102 -2.918,3.637 -4.375,8.008 -4.375,13.109 0,5.821 1.457,10.192 4.375,13.11 2.188,3.644 6.555,5.093 10.926,5.093 1.453,0 2.184,0 2.914,0 z m -42.246,-35.683 v 8.008 c 2.184,0 4.371,0.726 5.828,2.914 1.457,1.457 2.188,3.644 2.188,6.558 0,3.637 -0.731,5.821 -2.188,7.278 -1.457,2.187 -3.644,2.914 -5.828,2.914 v 0 7.285 c 0.731,0 2.184,-0.723 2.91,-0.723 2.192,-1.457 3.649,-2.914 5.106,-5.101 v 5.101 h 9.465 v -33.508 h -9.465 v 5.094 c -1.457,-2.18 -2.914,-3.637 -5.106,-5.094 -0.726,0 -2.179,-0.726 -2.91,-0.726 z m -65.558,0.726 v 26.219 h -4.364 v 7.289 h 4.364 v 11.652 h 9.476 v -11.652 h 5.094 v -7.289 h -5.094 v -26.219 z m 65.558,34.231 v -7.285 c -2.914,0 -5.105,-0.727 -6.558,-2.914 -1.454,-1.457 -2.18,-3.641 -2.18,-7.278 0,-2.914 0.726,-5.101 2.18,-6.558 1.453,-2.188 3.644,-2.914 6.558,-2.914 v 0 -8.008 c -1.457,0 -2.183,-0.731 -3.641,-0.731 -4.371,0 -8.011,2.188 -10.925,5.102 -2.914,3.637 -4.371,8.008 -4.371,13.109 0,5.821 1.457,10.192 4.371,13.11 2.914,3.644 6.554,5.093 10.925,5.093 1.458,0 2.184,0 3.641,-0.726 z m -35.695,-8.742 c 0.734,2.918 2.191,5.105 4.375,7.289 1.457,1.453 3.644,2.179 6.558,2.179 0.727,0 1.457,0 2.907,-0.726 0.73,0 0.73,0 0.73,0 l -1.453,-10.199 c -0.727,0 -1.457,0.73 -2.184,0.73 -0.73,0 -1.457,0 -2.187,0 -2.914,0 -5.098,-0.73 -6.555,-2.187 -1.457,-1.457 -2.191,-4.368 -2.191,-7.278 v -15.297 h -9.465 v 33.508 h 9.465 v -8.019"
         style="fill:#ffffff;fill-opacity:1;fill-rule:evenodd;stroke:none"
         id="path86" />
    </g>
  </g>
</svg>
